<?xml version="1.0" encoding="utf-8"?>
<!-- Svg Vector Icons : http://www.onlinewebfonts.com/icon -->
<!DOCTYPE svg PUBLIC "-//W3C//DTD SVG 1.1//EN" "http://www.w3.org/Graphics/SVG/1.1/DTD/svg11.dtd">
<svg version="1.1" xmlns="http://www.w3.org/2000/svg" xmlns:xlink="http://www.w3.org/1999/xlink" x="0px" y="0px" viewBox="0 0 256 256" enable-background="new 0 0 256 256" xml:space="preserve">
<metadata> Svg Vector Icons : http://www.onlinewebfonts.com/icon </metadata>
<g><g><path fill="#000000" d="M177.9,165.6c-4.7,0-8.5,3.8-8.5,8.5s3.8,8.5,8.5,8.5s8.5-3.8,8.5-8.5C186.4,169.4,182.6,165.6,177.9,165.6z"/><path fill="#000000" d="M76.5,165.5c-4.7,0-8.5,3.8-8.5,8.5c0,4.7,3.8,8.5,8.5,8.5c4.7,0,8.5-3.8,8.5-8.5C85,169.3,81.2,165.5,76.5,165.5z"/><path fill="#000000" d="M127.9,98.6h-19.7v19.7H88.4v19.7h19.7v19.7h19.7v-19.7h19.7v-19.7h-19.7V98.6z"/><path fill="#000000" d="M215.1,10H40.9C23.9,10,10,23.9,10,40.9V215c0,17.1,13.9,31,30.9,31h174.1c17.1,0,30.9-13.9,30.9-30.9V40.9C246,23.9,232.1,10,215.1,10z M134.1,74.3h5v-2.4c0-4.3,3.7-7.7,8.4-7.7c4.6,0,8.3,3.4,8.3,7.7v2.4h4.9v3.8h-26.5L134.1,74.3L134.1,74.3z M76.5,191.6c-9.8,0-17.7-7.9-17.7-17.7s7.9-17.7,17.7-17.7c9.8,0,17.7,7.9,17.7,17.7S86.2,191.6,76.5,191.6z M177.9,191.8c-9.8,0-17.7-7.9-17.7-17.7c0-9.8,7.9-17.7,17.7-17.7c9.8,0,17.7,7.9,17.7,17.7C195.6,183.9,187.7,191.8,177.9,191.8z M213.9,174.1h-13c0-12.7-10.3-23-23-23c-12.7,0-23,10.3-23,23H99.4c0-12.7-10.3-23-23-23c-12.7,0-23,10.3-23,23H42.6c-3.8,0-6.7-2.9-6.7-6.6V90c0-4.2,3.3-7.6,7.4-7.6h139.3c5.3,0,9.2,2.6,11.1,7.2l14,34.1c5.3,1,8.5,3.3,10.9,16.4l3.8,23.6C223.6,171.3,219.3,174.1,213.9,174.1L213.9,174.1z"/><path fill="#000000" d="M161.2,90.3v32.2h37.2l-13.1-32.2H161.2z"/></g></g>
</svg>