<?xml version="1.0" encoding="utf-8"?>
<!-- Svg Vector Icons : http://www.onlinewebfonts.com/icon -->
<!DOCTYPE svg PUBLIC "-//W3C//DTD SVG 1.1//EN" "http://www.w3.org/Graphics/SVG/1.1/DTD/svg11.dtd">
<svg version="1.1" xmlns="http://www.w3.org/2000/svg" xmlns:xlink="http://www.w3.org/1999/xlink" x="0px" y="0px" viewBox="0 0 256 256" enable-background="new 0 0 256 256" xml:space="preserve">
<metadata> Svg Vector Icons : http://www.onlinewebfonts.com/icon </metadata>
<g><g><path fill="#000000" d="M200.5,148c-5-4-10.5-7.2-16.3-9.8c-4.9-2.2-12-3.5-15.4-8.1c-6.6-8.8,8.1-22,11.2-30.2c4.5-11.8,6.6-26.1,0.2-37.6C174.1,51.5,162.7,46,151.2,46c9.6,18.7,9.7,41.7,0.2,67c-2.2,5.9-5.9,11.2-9.4,16.4c-0.8,1.2-1.9,2.8-2.9,4.4c2.2,0.8,4.4,1.6,6.3,2.5c9.9,4.4,18.8,9.8,26.6,16c5.6,4.6,19.1,15.5,22.9,32c7.4-2.2,13.8-5.8,16.3-12.3c0.8-2,1.1-4.1,1.1-6.2C212.2,158.4,205.8,152.3,200.5,148z"/><path fill="#000000" d="M173.8,193.1c0-9.8-8.5-17.8-15.7-23.7c-6.6-5.3-14-9.6-21.7-13.1c-6.6-2.9-16.1-4.7-20.7-10.9c-8.8-11.8,10.9-29.4,15-40.4c6-15.8,8.8-34.9,0.2-50.3c-14.3-25.7-51-29.9-71-8.5C49.4,57.7,47,72.7,49.4,87.7c1.4,9.1,4.2,17.9,8.4,26.1c3.6,7,13.6,15.3,13.6,23.3c0,15-20.9,17.6-31.2,23.3c-11.2,6.1-26.9,16.5-29.6,30.2c-4.4,13.1,10.8,22.6,20.9,25.9c25.5,8.4,54.7,7.4,81.2,6c17-0.9,51.8-1.2,59.5-21.2C173.4,198.7,173.8,195.9,173.8,193.1z"/><path fill="#000000" d="M237.2,124.4c-3.7-3-7.9-5.4-12.2-7.3c-3.7-1.6-9-2.7-11.6-6.1c-4.9-6.6,6.1-16.5,8.4-22.6c3.4-8.9,5-19.5,0.2-28.2c-5.1-9.2-15.3-13.4-24.9-12.2c0.8,1.2,1.7,2.4,2.4,3.6c8.7,15.7,9.1,35.1,1.2,56.2c-1.5,4-3.7,7.5-5.9,10.9c7.2,3.3,13.8,7.4,19.6,12c3.7,2.9,12.6,10.2,17.1,21.2c6.2-1.6,11.7-4.4,13.8-9.7c0.5-1.5,0.8-3.1,0.8-4.6C246,132.1,241.2,127.6,237.2,124.4z"/></g></g>
</svg>