<?xml version="1.0" encoding="UTF-8"?>
<svg version="1.1" xmlns="http://www.w3.org/2000/svg" width="1440" height="733">
<path d="M0 0 C475.2 0 950.4 0 1440 0 C1440 211.53 1440 423.06 1440 641 C1424.21690278 648.89154861 1424.21690278 648.89154861 1418.13671875 651.5078125 C1417.47043961 651.79525833 1416.80416046 652.08270416 1416.11769104 652.37886047 C1413.97664408 653.29985256 1411.83258283 654.21345033 1409.6875 655.125 C1408.93134399 655.447034 1408.17518799 655.76906799 1407.39611816 656.1008606 C1401.93946228 658.42153756 1396.47330995 660.71889528 1391 663 C1390.31319153 663.28635315 1389.62638306 663.5727063 1388.91876221 663.86773682 C1308.41038999 697.33966668 1223.00947711 719.00379502 1013 727 C1012.27675537 726.90289734 1011.55351074 726.80579468 1010.80834961 726.70574951 C986.58099945 723.42243964 962.75946179 718.73149162 939 713 C937.78207764 712.70832947 937.78207764 712.70832947 936.53955078 712.4107666 C871.99965204 696.94166979 809.13411687 675.15656062 746.79852295 652.54884338 C739.22069165 649.80068373 731.63637989 647.07121846 724.046875 644.35546875 C722.97455124 643.97173599 721.90222748 643.58800323 720.79740906 643.19264221 C718.62272616 642.41456186 716.44801804 641.636552 714.27328491 640.85861206 C699.15040139 635.44796442 684.03465246 630.01815236 668.93359375 624.546875 C547.95069185 580.27991285 547.95069185 580.27991285 387 544 C385.96601074 543.88285645 384.93202148 543.76571289 383.86669922 543.64501953 C345.79309754 539.51152478 306.00337363 540.37706117 268 545 C267.27588928 545.08721313 266.55177856 545.17442627 265.8057251 545.26428223 C183.07389868 555.31878726 102.93193218 583.19600324 13.64453125 631.984375 C12.80744629 632.45101562 11.97036133 632.91765625 11.10791016 633.3984375 C9.52675969 634.28135549 7.9469443 635.16666979 6.36865234 636.0546875 C1.10829496 639 1.10829496 639 0 639 C0 428.13 0 217.26 0 0 Z " fill="#13957F" transform="translate(0,0)"/>
</svg>
