<?xml version="1.0" standalone="no"?>
<!DOCTYPE svg PUBLIC "-//W3C//DTD SVG 20010904//EN"
 "http://www.w3.org/TR/2001/REC-SVG-20010904/DTD/svg10.dtd">
<svg version="1.0" xmlns="http://www.w3.org/2000/svg"
 width="1264.000000pt" height="1280.000000pt" viewBox="0 0 1264.000000 1280.000000"
 preserveAspectRatio="xMidYMid meet">
<metadata>
Created by potrace 1.15, written by Peter Selinger 2001-2017
</metadata>
<g transform="translate(0.000000,1280.000000) scale(0.100000,-0.100000)"
fill="#000000" stroke="none">
<path d="M9505 12794 c-16 -2 -72 -9 -123 -15 -488 -56 -1008 -295 -1394 -639
-40 -36 -897 -824 -1904 -1752 -1008 -927 -1842 -1695 -1855 -1705 -42 -34
-111 -97 -1479 -1358 -1891 -1744 -1838 -1694 -1911 -1776 -262 -294 -454
-604 -598 -967 -381 -959 -304 -2035 206 -2886 119 -196 478 -683 620 -837
764 -833 1891 -1084 2903 -645 203 89 466 251 640 396 47 40 418 378 825 753
406 375 1205 1111 1775 1635 569 525 1047 967 1061 983 14 16 28 29 32 29 4 0
780 713 1724 1583 1084 999 1751 1622 1808 1686 435 494 689 1069 782 1766 24
180 24 617 0 800 -52 392 -142 694 -307 1030 -107 219 -186 339 -452 695 -239
319 -326 421 -475 556 -392 355 -827 565 -1331 645 -121 19 -472 34 -547 23z"/>
</g>
</svg>
